<?xml version="1.0" encoding="utf-8"?>
<!-- Generator: Adobe Illustrator 21.0.1, SVG Export Plug-In . SVG Version: 6.00 Build 0)  -->
<svg version="1.1" id="Layer_1" xmlns="http://www.w3.org/2000/svg" xmlns:xlink="http://www.w3.org/1999/xlink" x="0px" y="0px"
	 viewBox="0 0 313 164" style="enable-background:new 0 0 313 164;" xml:space="preserve">
<g>
	<path d="M85.6,78.6c-0.6,0-1.9,1-4.2,7.5c-0.3,0.8-0.6,1.6-0.9,2.4c0.1,0,0.3,0,0.4,0c0.9-0.1,3.2-1.1,6.2-9.2
		C86.4,78.6,86,78.6,85.6,78.6z"/>
	<path d="M90.1,55.6l-27.4,0c-6.8,0-12.3,5.5-12.3,12.3v27.5c0,6.8,5.5,12.3,12.3,12.3l27.4,0c6.8,0,12.3-5.5,12.3-12.3V67.9
		C102.4,61.1,96.9,55.6,90.1,55.6z M95.4,85.3c-1.8,0-4.5-0.7-6.7-3.8c-2.5,6.1-5,9.1-7.7,9.3c-0.5,0-1,0-1.5-0.2
		c-2.2,4.8-4.2,7-6.3,7c-2.9,0-4.6-1.7-8-11.4c-3.3,5.9-6.5,6.6-7.8,6.6v-2.3c0.5,0,3.2-0.3,6.2-6.3c0.2-0.3,0.3-0.7,0.5-1
		c-2.8-8.2-5.3-11.1-6.7-11.1c0,0,0,0,0,0l0-1.2v-1.2v1.2l0-1.2c0,0,0,0,0,0c2.8,0,5.5,3.5,8.2,10.8c0.5-0.8,0.9-1.4,1.3-1.9
		C67,78.5,67,78.2,67,77.9c0-2,1.6-3.6,3.6-3.6c2,0,3.6,1.6,3.6,3.6c0,0.5-0.1,0.9-0.3,1.4c0.9,1.2,1.8,2.8,2.9,4.9
		c0.6,1.2,1.2,2.1,1.8,2.9c0.2-0.5,0.4-1.1,0.7-1.7c2.4-6.6,4.1-9,6.4-9c0.9,0,1.7,0.3,2.3,0.8c0-0.1,0.1-0.3,0.1-0.4
		c2.3-6.7,4.3-9.3,7.4-9.3v2.3c-1.2,0-2.9,0.9-5.2,7.7c-0.2,0.5-0.4,1-0.5,1.5c0.2,0.3,0.5,0.7,0.8,1.1c1.3,2,3,3,4.9,3c0,0,0,0,0,0
		L95.4,85.3C95.4,85.3,95.4,85.3,95.4,85.3z"/>
	<path d="M72.3,81.1c-0.5,0.3-1.1,0.5-1.8,0.5c-0.8,0-1.6-0.3-2.2-0.8c-0.5,0.6-1,1.5-1.7,2.6c3.7,11,5.1,11.9,6.5,11.9
		c0.5,0,2-0.5,4.3-5.9c-1-0.9-2-2.3-2.9-4.2C73.7,83.3,72.9,82,72.3,81.1z"/>
	<path d="M70.1,79.1c0.1,0.1,0.3,0.1,0.5,0.1c0,0,0.1,0,0.1,0c-0.2-0.1-0.2-0.1-0.2-0.1C70.3,79.1,70.2,79.1,70.1,79.1z"/>
	<path d="M70.4,76.8c0.3,0,0.7,0.1,1.1,0.3c-0.2-0.2-0.6-0.4-0.9-0.4c-0.2,0-0.4,0.1-0.6,0.2C70.1,76.8,70.3,76.8,70.4,76.8
		C70.4,76.8,70.4,76.8,70.4,76.8z"/>
	<path d="M71.8,77.9c0-0.3-0.1-0.7-0.4-0.9c-0.4-0.2-0.7-0.3-1.1-0.3c0,0,0,0,0,0c-0.1,0-0.3,0-0.5,0c-0.4,0.2-0.7,0.6-0.7,1.1
		c0,0.5,0.3,1,0.8,1.2c0.1,0,0.2,0,0.3,0c0,0,0.1,0,0.2,0.1C71.3,79.2,71.8,78.6,71.8,77.9z"/>
</g>
<path id="logotyp" d="M114.6,94.1V68.9h10c4,0,7.2,1.2,9.7,3.5c2.5,2.3,3.7,5.4,3.7,9.1c0,3.8-1.2,6.9-3.7,9.2s-5.7,3.5-9.6,3.5
	L114.6,94.1L114.6,94.1z M120,89.4h4.6c2.4,0,4.3-0.8,5.8-2.3c1.4-1.5,2.2-3.6,2.1-5.6c0-2.3-0.7-4.2-2.1-5.7
	c-1.4-1.5-3.3-2.2-5.8-2.2H120L120,89.4L120,89.4z M141.7,94.1V68.9h5.5l11.7,15.9V68.9h5.4v25.3h-5.2l-12-16.5v16.5L141.7,94.1
	L141.7,94.1z M167.5,90.6l2.9-4.2c2.1,2.2,5,3.5,8,3.5c1.4,0,2.5-0.3,3.2-0.8c0.7-0.4,1.1-1.2,1.1-2c0-0.7-0.4-1.4-1.1-1.7
	c-0.8-0.5-1.7-0.8-2.7-1.1l-3.5-0.9c-1.2-0.3-2.4-0.7-3.5-1.2c-2.4-1.1-3.9-3.5-3.8-6.1c0-2.1,0.9-4.1,2.6-5.5
	c1.7-1.5,4.1-2.2,6.9-2.2c4,0,7.3,1.2,9.9,3.5l-3,4c-2-1.8-4.6-2.8-7.3-2.8h-0.1c-0.9-0.1-1.8,0.2-2.6,0.7c-0.6,0.4-1,1.1-0.9,1.8
	c0,0.6,0.4,1.1,1.1,1.5c0.8,0.4,1.7,0.8,2.7,1c1.1,0.3,2.2,0.6,3.5,0.9c1.2,0.3,2.4,0.7,3.5,1.2c2.4,1.1,3.9,3.5,3.8,6.2
	c0.1,2.2-0.9,4.4-2.6,5.9c-1.7,1.5-4.2,2.2-7.5,2.2C173.7,94.6,170.1,93.3,167.5,90.6L167.5,90.6z M191.8,94.1V68.9h11.8
	c2.6,0,4.7,0.8,6.2,2.3c3,3.3,3,8.3,0,11.6c-1.5,1.6-3.6,2.3-6.2,2.3h-6.4v9H191.8L191.8,94.1z M197.2,80.4h5.7c1,0,1.9-0.3,2.7-0.9
	c1.4-1.3,1.4-3.4,0.1-4.8c0,0-0.1-0.1-0.1-0.1c-0.7-0.6-1.7-1-2.7-0.9h-5.7L197.2,80.4L197.2,80.4z M213.5,85
	c-0.1-2.5,0.9-5,2.7-6.8c1.8-1.8,4.2-2.9,6.8-2.8c2.7,0,4.9,0.9,6.6,2.8c1.7,1.9,2.5,4.3,2.5,7.3v1.1h-13.6c0.2,1.1,0.8,2,1.6,2.7
	c1.1,0.8,2.3,1.1,3.6,1.1c0.9,0,1.8-0.2,2.6-0.4c0.8-0.2,1.6-0.6,2.2-1.2l2.1,3.2c-1.8,1.9-4.3,2.8-7.5,2.8c-2.8,0-5.1-0.9-7-2.7
	C214.4,90.2,213.5,87.8,213.5,85L213.5,85z M218.5,83.2h9c-0.1-1-0.6-1.8-1.3-2.5c-0.7-0.7-1.8-1.1-3.3-1.1c-1.4,0-2.5,0.4-3.2,1.1
	C219,81.4,218.6,82.3,218.5,83.2L218.5,83.2z M235.5,94.1V75.8h4.8v2.5c0.7-0.9,1.6-1.6,2.6-2.2c1-0.6,2.1-0.8,3.2-0.9v4.8
	c-0.4-0.1-0.9-0.1-1.3-0.1c-0.9,0-1.8,0.2-2.6,0.6c-0.8,0.3-1.4,0.8-1.9,1.5v12L235.5,94.1L235.5,94.1z M247.2,80.1v-4.3h3v-0.8
	c0-2,0.6-3.7,1.7-4.8c1.1-1.2,2.6-1.8,4.4-1.8c2.2,0,3.7,0.6,4.8,1.9l-1.8,3c-0.6-0.4-1.3-0.7-2-0.6c-0.6,0-1.2,0.2-1.7,0.6
	c-0.4,0.5-0.6,1.1-0.6,1.8v0.7h3.7v4.3H255v14h-4.8v-14L247.2,80.1L247.2,80.1z"/>
</svg>
