<?xml version="1.0" encoding="utf-8"?>
<!-- Generator: Adobe Illustrator 21.0.1, SVG Export Plug-In . SVG Version: 6.00 Build 0)  -->
<svg version="1.1" id="Layer_1" xmlns="http://www.w3.org/2000/svg" xmlns:xlink="http://www.w3.org/1999/xlink" x="0px" y="0px"
	 viewBox="0 0 313 164" style="enable-background:new 0 0 313 164;" xml:space="preserve">
<style type="text/css">
	.st0{fill:#FFFFFF;stroke:#E6EBF3;stroke-width:2;stroke-miterlimit:10;}
	.st1{fill:#22B573;}
	.st2{opacity:0.9;}
	.st3{fill:#D31636;}
	.st4{fill:#FFFFFF;}
	.st5{fill:#343A43;}
</style>
<g>
	<path class="st0" d="M90.1,56.6l-27.4,0c-6.3,0-11.3,5-11.3,11.3v27.5c0,6.2,5.1,11.3,11.3,11.3l27.4,0c6.3,0,11.3-5,11.3-11.3
		V67.9C101.4,61.7,96.4,56.6,90.1,56.6z"/>
	<g>
		<g>
			<path class="st1" d="M73.2,97.6c-3.1,0-4.9-2-9-14.2c-2.8-8.3-5.3-11.3-6.8-11.3c0,0,0,0,0,0l0-1.2l0-1.2c0,0,0,0,0,0
				c3.1,0,6,4.2,9,12.9c3.9,11.7,5.3,12.6,6.8,12.6c0.6,0,2.6-0.7,6-10c2.4-6.6,4.1-9,6.4-9c2.1,0,3.4,1.3,4.9,3.7c1.3,2,3,3,4.9,3
				c0,0,0,0,0,0l0,2.3c0,0,0,0,0,0c-1.9,0-4.6-0.7-6.8-4.1c-1.6-2.4-2.3-2.6-3-2.6c-0.6,0-1.9,1-4.2,7.5C78.5,94,76,97.6,73.2,97.6z
				 M57.4,70.9v-1.2V70.9z"/>
		</g>
		<g class="st2">
			<path class="st3" d="M57.4,92.7v-2.3c0.5,0,3.2-0.3,6.2-6.3c3.5-6.8,5.3-7.3,6.8-7.3c0,0,0,0,0,0c1.8,0,3.9,2.4,6.3,7.4
				c1.4,2.9,2.9,4.4,4.1,4.3c1-0.1,3.7-1.4,7.2-11.9c2.3-6.7,4.3-9.3,7.4-9.3v2.3c-1.2,0-2.9,0.9-5.2,7.7c-3,8.9-6,13.2-9.3,13.4
				c-2.3,0.2-4.4-1.7-6.3-5.6c-2.8-5.7-4.3-6.1-4.3-6.1c-0.4,0-1.5,0-4.7,6.1C62.2,92,58.7,92.7,57.4,92.7z"/>
		</g>
		<g>
			<circle class="st4" cx="70.5" cy="77.9" r="2.4"/>
			<path class="st3" d="M70.5,81.5c-2,0-3.6-1.6-3.6-3.6c0-2,1.6-3.6,3.6-3.6c2,0,3.6,1.6,3.6,3.6C74.1,79.9,72.5,81.5,70.5,81.5z
				 M70.5,76.7c-0.7,0-1.3,0.6-1.3,1.3s0.6,1.3,1.3,1.3s1.3-0.6,1.3-1.3S71.3,76.7,70.5,76.7z"/>
		</g>
	</g>
</g>
<path id="logotyp" class="st5" d="M114.6,94.1V68.9h10c4,0,7.2,1.2,9.7,3.5c2.5,2.3,3.7,5.4,3.7,9.1c0,3.8-1.2,6.9-3.7,9.2
	s-5.7,3.5-9.6,3.5L114.6,94.1L114.6,94.1z M120,89.4h4.6c2.4,0,4.3-0.8,5.8-2.3c1.4-1.5,2.2-3.6,2.1-5.6c0-2.3-0.7-4.2-2.1-5.7
	c-1.4-1.5-3.3-2.2-5.8-2.2H120L120,89.4L120,89.4z M141.7,94.1V68.9h5.5l11.7,15.9V68.9h5.4v25.3h-5.2l-12-16.5v16.5L141.7,94.1
	L141.7,94.1z M167.5,90.6l2.9-4.2c2.1,2.2,5,3.5,8,3.5c1.4,0,2.5-0.3,3.2-0.8c0.7-0.4,1.1-1.2,1.1-2c0-0.7-0.4-1.4-1.1-1.7
	c-0.8-0.5-1.7-0.8-2.7-1.1l-3.5-0.9c-1.2-0.3-2.4-0.7-3.5-1.2c-2.4-1.1-3.9-3.5-3.8-6.1c0-2.1,0.9-4.1,2.6-5.5
	c1.7-1.5,4.1-2.2,6.9-2.2c4,0,7.3,1.2,9.9,3.5l-3,4c-2-1.8-4.6-2.8-7.3-2.8h-0.1c-0.9-0.1-1.8,0.2-2.6,0.7c-0.6,0.4-1,1.1-0.9,1.8
	c0,0.6,0.4,1.1,1.1,1.5c0.8,0.4,1.7,0.8,2.7,1c1.1,0.3,2.2,0.6,3.5,0.9c1.2,0.3,2.4,0.7,3.5,1.2c2.4,1.1,3.9,3.5,3.8,6.2
	c0.1,2.2-0.9,4.4-2.6,5.9c-1.7,1.5-4.2,2.2-7.5,2.2C173.7,94.6,170.1,93.3,167.5,90.6L167.5,90.6z M191.8,94.1V68.9h11.8
	c2.6,0,4.7,0.8,6.2,2.3c3,3.3,3,8.3,0,11.6c-1.5,1.6-3.6,2.3-6.2,2.3h-6.4v9H191.8L191.8,94.1z M197.2,80.4h5.7c1,0,1.9-0.3,2.7-0.9
	c1.4-1.3,1.4-3.4,0.1-4.8c0,0-0.1-0.1-0.1-0.1c-0.7-0.6-1.7-1-2.7-0.9h-5.7L197.2,80.4L197.2,80.4z M213.5,85
	c-0.1-2.5,0.9-5,2.7-6.8c1.8-1.8,4.2-2.9,6.8-2.8c2.7,0,4.9,0.9,6.6,2.8c1.7,1.9,2.5,4.3,2.5,7.3v1.1h-13.6c0.2,1.1,0.8,2,1.6,2.7
	c1.1,0.8,2.3,1.1,3.6,1.1c0.9,0,1.8-0.2,2.6-0.4c0.8-0.2,1.6-0.6,2.2-1.2l2.1,3.2c-1.8,1.9-4.3,2.8-7.5,2.8c-2.8,0-5.1-0.9-7-2.7
	C214.4,90.2,213.5,87.8,213.5,85L213.5,85z M218.5,83.2h9c-0.1-1-0.6-1.8-1.3-2.5c-0.7-0.7-1.8-1.1-3.3-1.1c-1.4,0-2.5,0.4-3.2,1.1
	C219,81.4,218.6,82.3,218.5,83.2L218.5,83.2z M235.5,94.1V75.8h4.8v2.5c0.7-0.9,1.6-1.6,2.6-2.2c1-0.6,2.1-0.8,3.2-0.9v4.8
	c-0.4-0.1-0.9-0.1-1.3-0.1c-0.9,0-1.8,0.2-2.6,0.6c-0.8,0.3-1.4,0.8-1.9,1.5v12L235.5,94.1L235.5,94.1z M247.2,80.1v-4.3h3v-0.8
	c0-2,0.6-3.7,1.7-4.8c1.1-1.2,2.6-1.8,4.4-1.8c2.2,0,3.7,0.6,4.8,1.9l-1.8,3c-0.6-0.4-1.3-0.7-2-0.6c-0.6,0-1.2,0.2-1.7,0.6
	c-0.4,0.5-0.6,1.1-0.6,1.8v0.7h3.7v4.3H255v14h-4.8v-14L247.2,80.1L247.2,80.1z"/>
</svg>
