<?xml version="1.0" encoding="utf-8"?>
<!-- Generator: Adobe Illustrator 21.0.1, SVG Export Plug-In . SVG Version: 6.00 Build 0)  -->
<svg version="1.1" id="Layer_1" xmlns="http://www.w3.org/2000/svg" xmlns:xlink="http://www.w3.org/1999/xlink" x="0px" y="0px"
	 viewBox="0 0 60 60" style="enable-background:new 0 0 60 60;" xml:space="preserve">
<style type="text/css">
	.st0{fill:#FFFFFF;}
	.st1{fill:#22B573;}
	.st2{opacity:0.9;}
	.st3{fill:#D31636;}
</style>
<g>
	<path class="st0" d="M44.1,3.6l-27.4,0C10,3.6,4.4,9.1,4.4,15.9v27.5c0,6.8,5.5,12.3,12.3,12.3l27.4,0c6.8,0,12.3-5.5,12.3-12.3
		V15.9C56.4,9.1,50.9,3.6,44.1,3.6z"/>
	<g>
		<g>
			<path class="st1" d="M27.2,45.6c-3.1,0-4.9-2-9-14.2c-2.8-8.3-5.3-11.3-6.8-11.3c0,0,0,0,0,0l0-1.2l0-1.2c0,0,0,0,0,0
				c3.1,0,6,4.2,9,12.9c3.9,11.7,5.3,12.6,6.8,12.6c0.6,0,2.6-0.7,6-10c2.4-6.6,4.1-9,6.4-9c2.1,0,3.4,1.3,4.9,3.7c1.3,2,3,3,4.9,3
				c0,0,0,0,0,0l0,2.3c0,0,0,0,0,0c-1.9,0-4.6-0.7-6.8-4.1c-1.6-2.4-2.3-2.6-3-2.6c-0.6,0-1.9,1-4.2,7.5C32.5,42,30,45.6,27.2,45.6z
				 M11.4,18.9v-1.2V18.9z"/>
		</g>
		<g class="st2">
			<path class="st3" d="M11.4,40.7v-2.3c0.5,0,3.2-0.3,6.2-6.3c3.5-6.8,5.3-7.3,6.8-7.3c0,0,0,0,0,0c1.8,0,3.9,2.4,6.3,7.4
				c1.4,2.9,2.9,4.4,4.1,4.3c1-0.1,3.7-1.4,7.2-11.9c2.3-6.7,4.3-9.3,7.4-9.3v2.3c-1.2,0-2.9,0.9-5.2,7.7c-3,8.9-6,13.2-9.3,13.4
				c-2.3,0.2-4.4-1.7-6.3-5.6c-2.8-5.7-4.3-6.1-4.3-6.1c-0.4,0-1.5,0-4.7,6.1C16.2,40,12.7,40.7,11.4,40.7z"/>
		</g>
		<g>
			<circle class="st0" cx="24.5" cy="25.9" r="2.4"/>
			<path class="st3" d="M24.5,29.5c-2,0-3.6-1.6-3.6-3.6c0-2,1.6-3.6,3.6-3.6c2,0,3.6,1.6,3.6,3.6C28.1,27.9,26.5,29.5,24.5,29.5z
				 M24.5,24.7c-0.7,0-1.3,0.6-1.3,1.3c0,0.7,0.6,1.3,1.3,1.3c0.7,0,1.3-0.6,1.3-1.3C25.8,25.2,25.3,24.7,24.5,24.7z"/>
		</g>
	</g>
</g>
</svg>
